<svg xmlns="http://www.w3.org/2000/svg" width="35" height="35" viewBox="0 0 35 35"><g transform="translate(-1222.006 -2750.5)"><path d="M12.308,28.141a.385.385,0,0,0,.407.359h5.8a.385.385,0,0,0,.407-.359v-14H23.13a.39.39,0,0,0,.406-.33l.4-4.218a.334.334,0,0,0-.106-.273.434.434,0,0,0-.3-.116H18.924V6.208a1.363,1.363,0,0,1,1.44-1.271h3.242a.385.385,0,0,0,.407-.359V.359A.385.385,0,0,0,23.606,0H18.129c-3.214,0-5.82,2.3-5.82,5.133V9.2h-2.9A.385.385,0,0,0,9,9.559v4.22a.385.385,0,0,0,.407.359h2.9Z" transform="translate(1223 2753.75)" fill="#ddbc5f" fill-rule="evenodd"/><rect width="35" height="35" transform="translate(1222.006 2750.5)" fill="rgba(255,255,255,0.02)"/></g></svg>