<svg xmlns="http://www.w3.org/2000/svg" width="30" height="30" viewBox="0 0 30 30"><path d="M11.333,3A8.343,8.343,0,0,0,3,11.333V24.667A8.343,8.343,0,0,0,11.333,33H24.667A8.343,8.343,0,0,0,33,24.667V11.333A8.343,8.343,0,0,0,24.667,3Zm0,3.333H24.667a5.006,5.006,0,0,1,5,5V24.667a5.006,5.006,0,0,1-5,5H11.333a5.006,5.006,0,0,1-5-5V11.333A5.006,5.006,0,0,1,11.333,6.333ZM26.333,8A1.667,1.667,0,1,0,28,9.667,1.667,1.667,0,0,0,26.333,8ZM18,9.667A8.333,8.333,0,1,0,26.333,18,8.343,8.343,0,0,0,18,9.667ZM18,13a5,5,0,1,1-5,5A5.006,5.006,0,0,1,18,13Z" transform="translate(-3 -3)" fill="#ddbc5f"/></svg>