<svg xmlns="http://www.w3.org/2000/svg" width="30" height="24.257" viewBox="0 0 30 24.257"><g transform="translate(0 -17.61)"><path d="M29.493,17.842a1.223,1.223,0,0,0-1.1-.169l-6.5,2.155-6.5-2.155a1.222,1.222,0,0,0-.769,0l-6.5,2.155-6.5-2.155A1.223,1.223,0,0,0,0,18.833V38.362a1.223,1.223,0,0,0,.838,1.161l6.889,2.283h0a1.219,1.219,0,0,0,.171.042l.033.005a1.108,1.108,0,0,0,.352,0l.033-.005a1.219,1.219,0,0,0,.171-.042h0L15,39.65l6.5,2.155a1.222,1.222,0,0,0,.769,0l6.889-2.283A1.223,1.223,0,0,0,30,38.362V18.833A1.223,1.223,0,0,0,29.493,17.842ZM9.334,22l4.443-1.472V37.479L9.334,38.951Zm6.888-1.472L20.666,22V38.951l-4.443-1.472Zm-13.777,0L6.889,22V38.951L2.446,37.479ZM27.554,37.479l-4.443,1.472V22l4.443-1.472Z" fill="#ddbc5f"/></g></svg>