<svg xmlns="http://www.w3.org/2000/svg" width="30" height="30" viewBox="0 0 30 30"><g transform="translate(0 -0.043)"><path d="M29.865,23.956l-.149-.45a4.218,4.218,0,0,0-2.578-2.437L23.2,19.992a3.862,3.862,0,0,0-3.375.882L18.394,22.3A15.132,15.132,0,0,1,7.746,11.65l1.427-1.427a3.859,3.859,0,0,0,.882-3.374L8.98,2.906A4.214,4.214,0,0,0,6.542.329L6.092.178A3.576,3.576,0,0,0,2.76.964L.626,3.1A3.981,3.981,0,0,0,0,4.568,25.186,25.186,0,0,0,25.412,30.042a3.964,3.964,0,0,0,1.533-.619l2.134-2.134A3.578,3.578,0,0,0,29.865,23.956Z" transform="translate(0 0)" fill="#ddbc5f"/></g></svg>